<?xml version="1.0" standalone="no"?>
<!DOCTYPE svg PUBLIC "-//W3C//DTD SVG 20010904//EN"
 "http://www.w3.org/TR/2001/REC-SVG-20010904/DTD/svg10.dtd">
<svg version="1.0" xmlns="http://www.w3.org/2000/svg"
 width="746.000000pt" height="414.000000pt" viewBox="0 0 746.000000 414.000000"
 preserveAspectRatio="xMidYMid meet">

<g transform="translate(0.000000,414.000000) scale(0.100000,-0.100000)"
fill="#000000" stroke="none">
<path d="M2650 4004 c-19 -2 -87 -9 -150 -15 -63 -6 -182 -22 -265 -35 -968
-158 -1689 -499 -1913 -904 -86 -156 -84 -344 6 -500 133 -231 370 -423 992
-805 635 -389 867 -598 920 -824 36 -155 -41 -320 -204 -435 -158 -113 -364
-184 -590 -205 -178 -17 -311 16 -389 95 -60 60 -72 89 -72 175 0 69 4 83 42
160 102 205 321 409 471 439 88 18 92 20 109 56 15 31 15 35 -2 54 -23 26 -85
26 -142 0 -158 -71 -388 -300 -472 -469 -71 -141 -86 -279 -42 -378 88 -198
405 -271 765 -178 287 75 539 250 632 439 39 79 39 81 39 195 0 104 -3 122
-27 173 -42 89 -99 167 -194 262 -175 175 -389 330 -839 607 -453 279 -643
416 -790 571 -132 139 -189 277 -166 406 20 109 73 196 190 312 199 198 487
355 906 495 494 165 1135 270 1525 250 509 -26 738 -163 676 -405 -22 -87 -67
-160 -150 -248 -130 -136 -265 -236 -641 -470 -226 -140 -259 -167 -253 -204
3 -21 8 -23 55 -23 41 1 70 10 140 45 206 105 516 340 682 517 343 366 329
639 -39 774 -141 51 -284 71 -545 74 -126 2 -246 1 -265 -1z"/>
<path d="M2819 1661 c-58 -59 -30 -131 51 -131 73 0 107 84 55 135 -33 33 -70
32 -106 -4z"/>
<path d="M5164 1589 c-100 -70 -181 -144 -396 -363 -114 -116 -210 -208 -213
-204 -10 10 10 66 81 225 65 144 74 179 52 201 -37 37 -102 -18 -149 -125 -18
-43 -40 -89 -48 -101 -19 -31 -322 -180 -461 -226 -206 -69 -357 -83 -429 -40
-17 10 -41 38 -52 62 -40 82 0 152 88 152 92 0 211 59 263 132 36 49 42 124
13 151 -46 41 -170 25 -272 -36 -67 -40 -172 -143 -195 -191 -19 -41 -72 -84
-259 -215 -201 -141 -318 -187 -401 -159 -103 35 -105 141 -9 350 35 77 44
107 41 140 -3 40 -5 43 -34 46 -54 5 -117 -83 -162 -228 -55 -182 -36 -304 58
-368 31 -21 44 -23 112 -20 64 4 90 11 164 47 103 49 245 141 363 234 46 37
88 64 92 61 5 -3 9 -25 9 -50 0 -116 89 -193 233 -202 188 -11 396 58 712 236
49 28 91 49 93 47 2 -2 -2 -45 -8 -97 -15 -118 -7 -148 44 -148 47 0 104 47
251 206 278 300 436 444 488 444 23 0 21 -9 -48 -165 -123 -280 -176 -459
-177 -595 -2 -175 76 -222 232 -139 89 47 178 126 280 248 51 61 94 111 96
111 2 0 10 -16 18 -35 34 -81 129 -47 306 110 l55 49 5 -29 5 -30 22 22 c12
12 33 44 47 71 33 66 120 144 155 140 28 -3 31 -14 46 -140 15 -116 115 -195
262 -205 144 -9 364 51 573 158 98 50 130 71 130 84 0 18 -87 -7 -211 -60
-243 -105 -371 -135 -479 -115 -61 12 -77 20 -111 57 -39 41 -57 82 -80 182
-34 147 -75 171 -182 106 -32 -19 -62 -35 -66 -35 -5 0 -11 14 -15 31 -8 42
-57 89 -93 89 -42 0 -122 -43 -176 -95 -26 -24 -76 -89 -112 -144 -123 -185
-396 -475 -496 -525 -93 -46 -122 -32 -120 61 1 86 31 190 121 418 78 197 120
332 120 382 0 13 -11 35 -25 48 -37 38 -80 33 -151 -16z m-1306 -211 c34 -43
-66 -110 -210 -142 -96 -21 31 97 150 140 47 17 47 17 60 2z m2156 -64 c3 -8
-1 -28 -9 -44 -21 -41 -209 -190 -222 -176 -10 9 66 114 127 179 56 57 92 72
104 41z"/>
</g>
</svg>
